<svg width="194" height="71" viewBox="0 0 194 71" fill="none" xmlns="http://www.w3.org/2000/svg">
<rect width="194" height="71" rx="13" fill="#1D1F28"/>
<path d="M57.21 34.25C58.15 34.45 58.92 34.77 59.52 35.21C60.12 35.65 60.63 36.25 61.05 37.01C61.49 37.77 61.93 38.78 62.37 40.04L64.68 47H61.11L58.89 40.37C58.61 39.53 58.33 38.88 58.05 38.42C57.77 37.96 57.39 37.59 56.91 37.31C56.43 37.03 55.76 36.84 54.9 36.74L51.18 40.79V47H47.64V26H51.18V36.41L60.6 26H64.83L57.21 34.25ZM73.1027 47.36C71.1027 47.36 69.5527 46.88 68.4527 45.92C67.3527 44.96 66.8027 43.6 66.8027 41.84V38.06C66.8027 36.3 67.3527 34.94 68.4527 33.98C69.5527 33.02 71.1027 32.54 73.1027 32.54C75.1227 32.54 76.6827 33.02 77.7827 33.98C78.8827 34.94 79.4327 36.3 79.4327 38.06V41.84C79.4327 43.6 78.8827 44.96 77.7827 45.92C76.6827 46.88 75.1227 47.36 73.1027 47.36ZM73.1027 44.81C74.0827 44.81 74.8327 44.56 75.3527 44.06C75.8927 43.54 76.1627 42.8 76.1627 41.84V38.06C76.1627 37.1 75.8927 36.37 75.3527 35.87C74.8327 35.35 74.0827 35.09 73.1027 35.09C72.1427 35.09 71.3927 35.35 70.8527 35.87C70.3327 36.37 70.0727 37.1 70.0727 38.06V41.84C70.0727 42.8 70.3327 43.54 70.8527 44.06C71.3927 44.56 72.1427 44.81 73.1027 44.81ZM90.7008 32.54C92.2208 32.54 93.3808 32.97 94.1808 33.83C95.0008 34.67 95.4108 35.86 95.4108 37.4V47H92.1408V37.73C92.1408 36.91 91.9308 36.27 91.5108 35.81C91.1108 35.33 90.5408 35.09 89.8008 35.09C88.9408 35.09 88.2308 35.37 87.6708 35.93C87.1108 36.47 86.6808 37.19 86.3808 38.09V47H83.1108V36.65C83.1108 36.17 83.0208 35.78 82.8408 35.48C82.6608 35.18 82.3308 34.84 81.8508 34.46L84.0408 32.54C84.6808 32.88 85.1708 33.25 85.5108 33.65C85.8508 34.03 86.0908 34.49 86.2308 35.03C86.6508 34.27 87.2408 33.67 88.0008 33.23C88.7608 32.77 89.6608 32.54 90.7008 32.54ZM102.403 35.45V42.11C102.403 42.97 102.553 43.59 102.853 43.97C103.153 44.35 103.643 44.54 104.323 44.54H106.483V47.06H104.323C102.443 47.06 101.103 46.69 100.303 45.95C99.5227 45.19 99.1327 43.91 99.1327 42.11V30.35C99.1327 29.87 99.0427 29.48 98.8627 29.18C98.6827 28.88 98.3527 28.54 97.8727 28.16L100.063 26.24C100.943 26.7 101.553 27.23 101.893 27.83C102.233 28.41 102.403 29.23 102.403 30.29V32.9H106.483V35.45H102.403ZM121.291 43.25C121.291 43.73 121.381 44.12 121.561 44.42C121.741 44.72 122.071 45.06 122.551 45.44L120.361 47.36C119.241 46.8 118.531 46.06 118.231 45.14C117.771 45.78 117.141 46.31 116.341 46.73C115.541 47.15 114.591 47.36 113.491 47.36C112.051 47.36 110.911 47 110.071 46.28C109.231 45.54 108.811 44.5 108.811 43.16C108.811 41.62 109.341 40.53 110.401 39.89C111.461 39.25 112.811 38.84 114.451 38.66L116.191 38.48C116.831 38.42 117.281 38.31 117.541 38.15C117.821 37.97 117.981 37.71 118.021 37.37C117.901 35.69 116.891 34.85 114.991 34.85C114.251 34.85 113.611 34.98 113.071 35.24C112.551 35.48 112.051 35.89 111.571 36.47L109.321 34.88C109.861 34.14 110.581 33.57 111.481 33.17C112.381 32.75 113.551 32.54 114.991 32.54C117.091 32.54 118.661 32.98 119.701 33.86C120.761 34.72 121.291 35.98 121.291 37.64V43.25ZM114.301 44.96C115.461 44.96 116.371 44.67 117.031 44.09C117.691 43.51 118.021 42.78 118.021 41.9V40.28C117.641 40.44 116.981 40.57 116.041 40.67L114.691 40.82C112.851 41.02 111.931 41.75 111.931 43.01C111.931 43.65 112.131 44.14 112.531 44.48C112.951 44.8 113.541 44.96 114.301 44.96ZM138.256 47H134.896L133.576 42.17C133.396 41.51 133.116 41.03 132.736 40.73C132.376 40.43 131.786 40.24 130.966 40.16L128.656 42.5V47H125.386V28.85C125.386 28.37 125.296 27.98 125.116 27.68C124.936 27.38 124.606 27.04 124.126 26.66L126.316 24.77C127.196 25.21 127.806 25.73 128.146 26.33C128.486 26.91 128.656 27.73 128.656 28.79V38.51L134.146 32.9H138.136L133.306 37.79C134.266 37.99 135.016 38.43 135.556 39.11C136.096 39.79 136.556 40.81 136.936 42.17L138.256 47ZM143.887 35.45V42.11C143.887 42.97 144.037 43.59 144.337 43.97C144.637 44.35 145.127 44.54 145.807 44.54H147.967V47.06H145.807C143.927 47.06 142.587 46.69 141.787 45.95C141.007 45.19 140.617 43.91 140.617 42.11V30.35C140.617 29.87 140.527 29.48 140.347 29.18C140.167 28.88 139.837 28.54 139.357 28.16L141.547 26.24C142.427 26.7 143.037 27.23 143.377 27.83C143.717 28.41 143.887 29.23 143.887 30.29V32.9H147.967V35.45H143.887Z" fill="white"/>
</svg>
