<svg width="269" height="71" viewBox="0 0 269 71" fill="none" xmlns="http://www.w3.org/2000/svg">
<rect width="269" height="71" rx="13" fill="#1D1F28"/>
<path d="M54.15 47.36C52.77 47.36 51.6 47.22 50.64 46.94C49.7 46.64 48.89 46.21 48.21 45.65C47.53 45.09 46.84 44.35 46.14 43.43L48.54 41.42C49.36 42.56 50.18 43.37 51 43.85C51.84 44.33 52.88 44.57 54.12 44.57C55.8 44.57 57.05 44.3 57.87 43.76C58.69 43.22 59.1 42.39 59.1 41.27C59.1 40.65 58.92 40.15 58.56 39.77C58.22 39.37 57.61 39.03 56.73 38.75C55.87 38.45 54.58 38.12 52.86 37.76C50.9 37.36 49.44 36.66 48.48 35.66C47.52 34.66 47.04 33.33 47.04 31.67C47.04 30.45 47.35 29.39 47.97 28.49C48.59 27.57 49.47 26.87 50.61 26.39C51.75 25.89 53.09 25.64 54.63 25.64C56.51 25.64 58.04 25.93 59.22 26.51C60.42 27.09 61.37 27.95 62.07 29.09L59.73 31.01C58.95 30.11 58.18 29.46 57.42 29.06C56.68 28.64 55.74 28.43 54.6 28.43C53.32 28.43 52.33 28.72 51.63 29.3C50.93 29.86 50.58 30.66 50.58 31.7C50.58 32.64 50.97 33.36 51.75 33.86C52.53 34.34 53.61 34.73 54.99 35.03C56.77 35.39 58.19 35.79 59.25 36.23C60.31 36.65 61.14 37.26 61.74 38.06C62.34 38.86 62.64 39.93 62.64 41.27C62.64 45.33 59.81 47.36 54.15 47.36ZM73.9472 32.54C75.2672 32.54 76.3872 32.86 77.3072 33.5C78.2272 34.12 78.9172 34.96 79.3772 36.02C79.8372 37.06 80.0672 38.21 80.0672 39.47V40.43C80.0672 41.69 79.8372 42.85 79.3772 43.91C78.9172 44.95 78.2272 45.79 77.3072 46.43C76.3872 47.05 75.2672 47.36 73.9472 47.36C72.7872 47.36 71.8572 47.19 71.1572 46.85C70.4772 46.49 69.9072 45.99 69.4472 45.35V53.57H66.1772V36.65C66.1772 36.17 66.0772 35.78 65.8772 35.48C65.6972 35.16 65.3772 34.82 64.9172 34.46L67.1072 32.54C67.7272 32.86 68.2072 33.22 68.5472 33.62C68.8872 34 69.1172 34.45 69.2372 34.97C70.2772 33.35 71.8472 32.54 73.9472 32.54ZM76.7972 39.47C76.7972 38.21 76.4672 37.17 75.8072 36.35C75.1472 35.51 74.2272 35.09 73.0472 35.09C71.2072 35.09 70.0072 36 69.4472 37.82V42.08C70.0072 43.9 71.2072 44.81 73.0472 44.81C74.2272 44.81 75.1472 44.4 75.8072 43.58C76.4672 42.74 76.7972 41.69 76.7972 40.43V39.47ZM94.8066 43.25C94.8066 43.73 94.8966 44.12 95.0766 44.42C95.2566 44.72 95.5866 45.06 96.0666 45.44L93.8766 47.36C92.7566 46.8 92.0466 46.06 91.7466 45.14C91.2866 45.78 90.6566 46.31 89.8566 46.73C89.0566 47.15 88.1066 47.36 87.0066 47.36C85.5666 47.36 84.4266 47 83.5866 46.28C82.7466 45.54 82.3266 44.5 82.3266 43.16C82.3266 41.62 82.8566 40.53 83.9166 39.89C84.9766 39.25 86.3266 38.84 87.9666 38.66L89.7066 38.48C90.3466 38.42 90.7966 38.31 91.0566 38.15C91.3366 37.97 91.4966 37.71 91.5366 37.37C91.4166 35.69 90.4066 34.85 88.5066 34.85C87.7666 34.85 87.1266 34.98 86.5866 35.24C86.0666 35.48 85.5666 35.89 85.0866 36.47L82.8366 34.88C83.3766 34.14 84.0966 33.57 84.9966 33.17C85.8966 32.75 87.0666 32.54 88.5066 32.54C90.6066 32.54 92.1766 32.98 93.2166 33.86C94.2766 34.72 94.8066 35.98 94.8066 37.64V43.25ZM87.8166 44.96C88.9766 44.96 89.8866 44.67 90.5466 44.09C91.2066 43.51 91.5366 42.78 91.5366 41.9V40.28C91.1566 40.44 90.4966 40.57 89.5566 40.67L88.2066 40.82C86.3666 41.02 85.4466 41.75 85.4466 43.01C85.4466 43.65 85.6466 44.14 86.0466 44.48C86.4666 44.8 87.0566 44.96 87.8166 44.96ZM86.6166 30.98C86.1566 30.98 85.7566 30.82 85.4166 30.5C85.0766 30.16 84.9066 29.76 84.9066 29.3C84.9066 28.84 85.0766 28.45 85.4166 28.13C85.7566 27.79 86.1566 27.62 86.6166 27.62C87.0766 27.62 87.4666 27.79 87.7866 28.13C88.1066 28.45 88.2666 28.84 88.2666 29.3C88.2666 29.76 88.1066 30.16 87.7866 30.5C87.4666 30.82 87.0766 30.98 86.6166 30.98ZM91.8066 30.98C91.3266 30.98 90.9266 30.82 90.6066 30.5C90.2866 30.16 90.1266 29.76 90.1266 29.3C90.1266 28.84 90.2866 28.45 90.6066 28.13C90.9266 27.79 91.3266 27.62 91.8066 27.62C92.2666 27.62 92.6666 27.79 93.0066 28.13C93.3466 28.45 93.5166 28.84 93.5166 29.3C93.5166 29.76 93.3466 30.16 93.0066 30.5C92.6666 30.82 92.2666 30.98 91.8066 30.98ZM101.875 35.45V42.11C101.875 42.97 102.025 43.59 102.325 43.97C102.625 44.35 103.115 44.54 103.795 44.54H105.955V47.06H103.795C101.915 47.06 100.575 46.69 99.7753 45.95C98.9953 45.19 98.6053 43.91 98.6053 42.11V30.35C98.6053 29.87 98.5153 29.48 98.3353 29.18C98.1553 28.88 97.8253 28.54 97.3453 28.16L99.5353 26.24C100.415 26.7 101.025 27.23 101.365 27.83C101.705 28.41 101.875 29.23 101.875 30.29V32.9H105.955V35.45H101.875ZM116.834 32.54C118.354 32.54 119.514 32.97 120.314 33.83C121.134 34.67 121.544 35.86 121.544 37.4V47H118.274V37.73C118.274 36.91 118.064 36.27 117.644 35.81C117.244 35.33 116.674 35.09 115.934 35.09C115.074 35.09 114.364 35.37 113.804 35.93C113.244 36.47 112.814 37.19 112.514 38.09V47H109.244V36.65C109.244 36.17 109.154 35.78 108.974 35.48C108.794 35.18 108.464 34.84 107.984 34.46L110.174 32.54C110.814 32.88 111.304 33.25 111.644 33.65C111.984 34.03 112.224 34.49 112.364 35.03C112.784 34.27 113.374 33.67 114.134 33.23C114.894 32.77 115.794 32.54 116.834 32.54ZM137.316 43.25C137.316 43.73 137.406 44.12 137.586 44.42C137.766 44.72 138.096 45.06 138.576 45.44L136.386 47.36C135.266 46.8 134.556 46.06 134.256 45.14C133.796 45.78 133.166 46.31 132.366 46.73C131.566 47.15 130.616 47.36 129.516 47.36C128.076 47.36 126.936 47 126.096 46.28C125.256 45.54 124.836 44.5 124.836 43.16C124.836 41.62 125.366 40.53 126.426 39.89C127.486 39.25 128.836 38.84 130.476 38.66L132.216 38.48C132.856 38.42 133.306 38.31 133.566 38.15C133.846 37.97 134.006 37.71 134.046 37.37C133.926 35.69 132.916 34.85 131.016 34.85C130.276 34.85 129.636 34.98 129.096 35.24C128.576 35.48 128.076 35.89 127.596 36.47L125.346 34.88C125.886 34.14 126.606 33.57 127.506 33.17C128.406 32.75 129.576 32.54 131.016 32.54C133.116 32.54 134.686 32.98 135.726 33.86C136.786 34.72 137.316 35.98 137.316 37.64V43.25ZM130.326 44.96C131.486 44.96 132.396 44.67 133.056 44.09C133.716 43.51 134.046 42.78 134.046 41.9V40.28C133.666 40.44 133.006 40.57 132.066 40.67L130.716 40.82C128.876 41.02 127.956 41.75 127.956 43.01C127.956 43.65 128.156 44.14 128.556 44.48C128.976 44.8 129.566 44.96 130.326 44.96ZM132.606 26.24H136.056L132.846 30.83H130.206L132.606 26.24ZM154.861 47.36C153.921 47.36 153.171 47.12 152.611 46.64C152.051 46.14 151.601 45.32 151.261 44.18L147.751 32.9H150.931L154.231 43.88C154.351 44.26 154.441 44.51 154.501 44.63C154.581 44.75 154.701 44.81 154.861 44.81C155.001 44.81 155.111 44.75 155.191 44.63C155.291 44.49 155.391 44.24 155.491 43.88L158.761 32.9H161.911L158.461 44.18C158.121 45.32 157.671 46.14 157.111 46.64C156.571 47.12 155.821 47.36 154.861 47.36ZM174.846 43.25C174.846 43.73 174.936 44.12 175.116 44.42C175.296 44.72 175.626 45.06 176.106 45.44L173.916 47.36C172.796 46.8 172.086 46.06 171.786 45.14C171.326 45.78 170.696 46.31 169.896 46.73C169.096 47.15 168.146 47.36 167.046 47.36C165.606 47.36 164.466 47 163.626 46.28C162.786 45.54 162.366 44.5 162.366 43.16C162.366 41.62 162.896 40.53 163.956 39.89C165.016 39.25 166.366 38.84 168.006 38.66L169.746 38.48C170.386 38.42 170.836 38.31 171.096 38.15C171.376 37.97 171.536 37.71 171.576 37.37C171.456 35.69 170.446 34.85 168.546 34.85C167.806 34.85 167.166 34.98 166.626 35.24C166.106 35.48 165.606 35.89 165.126 36.47L162.876 34.88C163.416 34.14 164.136 33.57 165.036 33.17C165.936 32.75 167.106 32.54 168.546 32.54C170.646 32.54 172.216 32.98 173.256 33.86C174.316 34.72 174.846 35.98 174.846 37.64V43.25ZM167.856 44.96C169.016 44.96 169.926 44.67 170.586 44.09C171.246 43.51 171.576 42.78 171.576 41.9V40.28C171.196 40.44 170.536 40.57 169.596 40.67L168.246 40.82C166.406 41.02 165.486 41.75 165.486 43.01C165.486 43.65 165.686 44.14 166.086 44.48C166.506 44.8 167.096 44.96 167.856 44.96ZM166.656 30.98C166.196 30.98 165.796 30.82 165.456 30.5C165.116 30.16 164.946 29.76 164.946 29.3C164.946 28.84 165.116 28.45 165.456 28.13C165.796 27.79 166.196 27.62 166.656 27.62C167.116 27.62 167.506 27.79 167.826 28.13C168.146 28.45 168.306 28.84 168.306 29.3C168.306 29.76 168.146 30.16 167.826 30.5C167.506 30.82 167.116 30.98 166.656 30.98ZM171.846 30.98C171.366 30.98 170.966 30.82 170.646 30.5C170.326 30.16 170.166 29.76 170.166 29.3C170.166 28.84 170.326 28.45 170.646 28.13C170.966 27.79 171.366 27.62 171.846 27.62C172.306 27.62 172.706 27.79 173.046 28.13C173.386 28.45 173.556 28.84 173.556 29.3C173.556 29.76 173.386 30.16 173.046 30.5C172.706 30.82 172.306 30.98 171.846 30.98ZM189.914 44.48V47H180.884C179.884 47 179.124 46.82 178.604 46.46C178.084 46.08 177.824 45.48 177.824 44.66V43.31L185.804 35.42H178.124V32.9H189.554V35.36L180.794 44C180.934 44.32 181.234 44.48 181.694 44.48H189.914ZM200.421 47.36C198.461 47.36 196.971 46.71 195.951 45.41V47H192.681V28.85C192.681 28.37 192.591 27.98 192.411 27.68C192.231 27.38 191.901 27.04 191.421 26.66L193.611 24.77C194.491 25.23 195.101 25.76 195.441 26.36C195.781 26.94 195.951 27.75 195.951 28.79V34.55C196.991 33.21 198.481 32.54 200.421 32.54C201.721 32.54 202.831 32.85 203.751 33.47C204.691 34.07 205.401 34.9 205.881 35.96C206.361 37 206.601 38.17 206.601 39.47V40.43C206.601 41.73 206.361 42.91 205.881 43.97C205.401 45.01 204.691 45.84 203.751 46.46C202.831 47.06 201.721 47.36 200.421 47.36ZM199.551 44.81C200.731 44.81 201.651 44.4 202.311 43.58C202.971 42.74 203.301 41.69 203.301 40.43V39.47C203.301 38.21 202.971 37.17 202.311 36.35C201.651 35.51 200.731 35.09 199.551 35.09C197.711 35.09 196.511 36 195.951 37.82V42.08C196.511 43.9 197.711 44.81 199.551 44.81ZM221.34 43.25C221.34 43.73 221.43 44.12 221.61 44.42C221.79 44.72 222.12 45.06 222.6 45.44L220.41 47.36C219.29 46.8 218.58 46.06 218.28 45.14C217.82 45.78 217.19 46.31 216.39 46.73C215.59 47.15 214.64 47.36 213.54 47.36C212.1 47.36 210.96 47 210.12 46.28C209.28 45.54 208.86 44.5 208.86 43.16C208.86 41.62 209.39 40.53 210.45 39.89C211.51 39.25 212.86 38.84 214.5 38.66L216.24 38.48C216.88 38.42 217.33 38.31 217.59 38.15C217.87 37.97 218.03 37.71 218.07 37.37C217.95 35.69 216.94 34.85 215.04 34.85C214.3 34.85 213.66 34.98 213.12 35.24C212.6 35.48 212.1 35.89 211.62 36.47L209.37 34.88C209.91 34.14 210.63 33.57 211.53 33.17C212.43 32.75 213.6 32.54 215.04 32.54C217.14 32.54 218.71 32.98 219.75 33.86C220.81 34.72 221.34 35.98 221.34 37.64V43.25ZM214.35 44.96C215.51 44.96 216.42 44.67 217.08 44.09C217.74 43.51 218.07 42.78 218.07 41.9V40.28C217.69 40.44 217.03 40.57 216.09 40.67L214.74 40.82C212.9 41.02 211.98 41.75 211.98 43.01C211.98 43.65 212.18 44.14 212.58 44.48C213 44.8 213.59 44.96 214.35 44.96Z" fill="white"/>
</svg>
