<svg width="182" height="71" viewBox="0 0 182 71" fill="none" xmlns="http://www.w3.org/2000/svg">
<rect width="182" height="71" rx="13" fill="#1D1F28"/>
<path d="M47.64 26H55.35C57.65 26 59.47 26.34 60.81 27.02C62.15 27.7 63.12 28.8 63.72 30.32C64.32 31.82 64.62 33.88 64.62 36.5C64.62 39.12 64.32 41.19 63.72 42.71C63.12 44.21 62.15 45.3 60.81 45.98C59.47 46.66 57.65 47 55.35 47H47.64V26ZM55.35 44.21C56.77 44.21 57.89 43.96 58.71 43.46C59.55 42.96 60.15 42.16 60.51 41.06C60.89 39.94 61.08 38.42 61.08 36.5C61.08 34.58 60.89 33.07 60.51 31.97C60.15 30.85 59.55 30.04 58.71 29.54C57.89 29.04 56.77 28.79 55.35 28.79H51.18V44.21H55.35ZM74.0402 47.36C72.0402 47.36 70.4902 46.88 69.3902 45.92C68.2902 44.96 67.7402 43.6 67.7402 41.84V38.06C67.7402 36.3 68.2902 34.94 69.3902 33.98C70.4902 33.02 72.0402 32.54 74.0402 32.54C76.0602 32.54 77.6202 33.02 78.7202 33.98C79.8202 34.94 80.3702 36.3 80.3702 38.06V41.84C80.3702 43.6 79.8202 44.96 78.7202 45.92C77.6202 46.88 76.0602 47.36 74.0402 47.36ZM74.0402 44.81C75.0202 44.81 75.7702 44.56 76.2902 44.06C76.8302 43.54 77.1002 42.8 77.1002 41.84V38.06C77.1002 37.1 76.8302 36.37 76.2902 35.87C75.7702 35.35 75.0202 35.09 74.0402 35.09C73.0802 35.09 72.3302 35.35 71.7902 35.87C71.2702 36.37 71.0102 37.1 71.0102 38.06V41.84C71.0102 42.8 71.2702 43.54 71.7902 44.06C72.3302 44.56 73.0802 44.81 74.0402 44.81ZM99.9183 32.54C101.318 32.54 102.398 32.97 103.158 33.83C103.938 34.67 104.328 35.86 104.328 37.4V47H101.058V37.73C101.058 36.91 100.868 36.27 100.488 35.81C100.128 35.33 99.6183 35.09 98.9583 35.09C98.1783 35.09 97.5183 35.37 96.9783 35.93C96.4583 36.49 96.0683 37.22 95.8083 38.12V47H92.5383V37.73C92.5383 36.91 92.3583 36.27 91.9983 35.81C91.6383 35.33 91.1283 35.09 90.4683 35.09C89.6883 35.09 89.0283 35.37 88.4883 35.93C87.9483 36.49 87.5583 37.22 87.3183 38.12V47H84.0483V36.65C84.0483 36.17 83.9583 35.78 83.7783 35.48C83.5983 35.18 83.2683 34.84 82.7883 34.46L84.9783 32.54C86.1583 33.12 86.8783 33.94 87.1383 35C88.1383 33.36 89.5683 32.54 91.4283 32.54C92.4683 32.54 93.3383 32.78 94.0383 33.26C94.7383 33.74 95.2183 34.44 95.4783 35.36C95.8383 34.5 96.3983 33.82 97.1583 33.32C97.9183 32.8 98.8383 32.54 99.9183 32.54ZM114.089 47.36C112.089 47.36 110.539 46.88 109.439 45.92C108.339 44.96 107.789 43.6 107.789 41.84V38.06C107.789 36.3 108.339 34.94 109.439 33.98C110.539 33.02 112.089 32.54 114.089 32.54C116.109 32.54 117.669 33.02 118.769 33.98C119.869 34.94 120.419 36.3 120.419 38.06V41.84C120.419 43.6 119.869 44.96 118.769 45.92C117.669 46.88 116.109 47.36 114.089 47.36ZM114.089 44.81C115.069 44.81 115.819 44.56 116.339 44.06C116.879 43.54 117.149 42.8 117.149 41.84V38.06C117.149 37.1 116.879 36.37 116.339 35.87C115.819 35.35 115.069 35.09 114.089 35.09C113.129 35.09 112.379 35.35 111.839 35.87C111.319 36.37 111.059 37.1 111.059 38.06V41.84C111.059 42.8 111.319 43.54 111.839 44.06C112.379 44.56 113.129 44.81 114.089 44.81ZM129.051 47.36C128.111 47.36 127.361 47.12 126.801 46.64C126.241 46.14 125.791 45.32 125.451 44.18L121.941 32.9H125.121L128.421 43.88C128.541 44.26 128.631 44.51 128.691 44.63C128.771 44.75 128.891 44.81 129.051 44.81C129.191 44.81 129.301 44.75 129.381 44.63C129.481 44.49 129.581 44.24 129.681 43.88L132.951 32.9H136.101L132.651 44.18C132.311 45.32 131.861 46.14 131.301 46.64C130.761 47.12 130.011 47.36 129.051 47.36Z" fill="white"/>
</svg>
