<svg width="22" height="26" viewBox="0 0 22 26" fill="none" xmlns="http://www.w3.org/2000/svg">
<circle cx="11" cy="14" r="8.5" stroke="#5B5B5B"/>
<path d="M10.66 10.06C10.3 10.06 9.98667 9.93333 9.72 9.68C9.46667 9.41333 9.34 9.1 9.34 8.74C9.34 8.39333 9.46667 8.09333 9.72 7.84C9.98667 7.57333 10.3 7.44 10.66 7.44C11.0067 7.44 11.3067 7.57333 11.56 7.84C11.8267 8.09333 11.96 8.39333 11.96 8.74C11.96 9.1 11.8267 9.41333 11.56 9.68C11.3067 9.93333 11.0067 10.06 10.66 10.06ZM11.14 21.24C10.5533 20.9333 10.14 20.58 9.9 20.18C9.67333 19.78 9.56 19.2333 9.56 18.54V11.6H11.74V18.5C11.74 18.82 11.8 19.08 11.92 19.28C12.04 19.48 12.26 19.7067 12.58 19.96L11.14 21.24Z" fill="#5B5B5B"/>
</svg>
