<svg width="216" height="71" viewBox="0 0 216 71" fill="none" xmlns="http://www.w3.org/2000/svg">
<rect width="216" height="71" rx="13" fill="#2D313F"/>
<path d="M47.64 26H51.18V47H47.64V26ZM63.4547 32.54C64.9747 32.54 66.1347 32.97 66.9347 33.83C67.7547 34.67 68.1647 35.86 68.1647 37.4V47H64.8947V37.73C64.8947 36.91 64.6847 36.27 64.2647 35.81C63.8647 35.33 63.2947 35.09 62.5547 35.09C61.6947 35.09 60.9847 35.37 60.4247 35.93C59.8647 36.47 59.4347 37.19 59.1347 38.09V47H55.8647V36.65C55.8647 36.17 55.7747 35.78 55.5947 35.48C55.4147 35.18 55.0847 34.84 54.6047 34.46L56.7947 32.54C57.4347 32.88 57.9247 33.25 58.2647 33.65C58.6047 34.03 58.8447 34.49 58.9847 35.03C59.4047 34.27 59.9947 33.67 60.7547 33.23C61.5147 32.77 62.4147 32.54 63.4547 32.54ZM76.6774 47.36C75.2174 47.36 74.0874 47.16 73.2874 46.76C72.5074 46.34 71.7774 45.68 71.0974 44.78L73.1374 43.04C73.6974 43.7 74.2274 44.16 74.7274 44.42C75.2274 44.68 75.8774 44.81 76.6774 44.81C77.6574 44.81 78.3774 44.67 78.8374 44.39C79.2974 44.11 79.5274 43.68 79.5274 43.1C79.5274 42.74 79.4174 42.45 79.1974 42.23C78.9974 41.99 78.6174 41.78 78.0574 41.6C77.5174 41.42 76.7274 41.24 75.6874 41.06C72.8874 40.54 71.4874 39.08 71.4874 36.68C71.4874 35.4 71.9774 34.39 72.9574 33.65C73.9574 32.91 75.2874 32.54 76.9474 32.54C79.4474 32.54 81.1874 33.33 82.1674 34.91L80.1574 36.62C79.6574 36.08 79.1674 35.69 78.6874 35.45C78.2074 35.21 77.6274 35.09 76.9474 35.09C76.1874 35.09 75.5974 35.24 75.1774 35.54C74.7774 35.84 74.5774 36.25 74.5774 36.77C74.5774 37.27 74.8074 37.66 75.2674 37.94C75.7274 38.2 76.3574 38.41 77.1574 38.57C78.4174 38.85 79.4274 39.15 80.1874 39.47C80.9474 39.77 81.5474 40.22 81.9874 40.82C82.4274 41.4 82.6474 42.18 82.6474 43.16C82.6474 45.96 80.6574 47.36 76.6774 47.36ZM75.5074 30.83C75.0474 29.95 74.4474 29.07 73.7074 28.19C72.9874 27.29 72.3574 26.61 71.8174 26.15H74.7274C75.1074 26.47 75.4974 26.86 75.8974 27.32C76.2974 27.76 76.6174 28.18 76.8574 28.58C77.0974 28.18 77.4174 27.76 77.8174 27.32C78.2174 26.86 78.6074 26.47 78.9874 26.15H81.9274C81.3674 26.61 80.7174 27.29 79.9774 28.19C79.2574 29.09 78.6674 29.97 78.2074 30.83H75.5074ZM88.8968 35.45V42.11C88.8968 42.97 89.0468 43.59 89.3468 43.97C89.6468 44.35 90.1368 44.54 90.8168 44.54H92.9768V47.06H90.8168C88.9368 47.06 87.5968 46.69 86.7968 45.95C86.0168 45.19 85.6268 43.91 85.6268 42.11V30.35C85.6268 29.87 85.5368 29.48 85.3568 29.18C85.1768 28.88 84.8468 28.54 84.3668 28.16L86.5568 26.24C87.4368 26.7 88.0468 27.23 88.3868 27.83C88.7268 28.41 88.8968 29.23 88.8968 30.29V32.9H92.9768V35.45H88.8968ZM107.785 43.25C107.785 43.73 107.875 44.12 108.055 44.42C108.235 44.72 108.565 45.06 109.045 45.44L106.855 47.36C105.735 46.8 105.025 46.06 104.725 45.14C104.265 45.78 103.635 46.31 102.835 46.73C102.035 47.15 101.085 47.36 99.9851 47.36C98.5451 47.36 97.4051 47 96.5651 46.28C95.7251 45.54 95.3051 44.5 95.3051 43.16C95.3051 41.62 95.8351 40.53 96.8951 39.89C97.9551 39.25 99.3051 38.84 100.945 38.66L102.685 38.48C103.325 38.42 103.775 38.31 104.035 38.15C104.315 37.97 104.475 37.71 104.515 37.37C104.395 35.69 103.385 34.85 101.485 34.85C100.745 34.85 100.105 34.98 99.5651 35.24C99.0451 35.48 98.5451 35.89 98.0651 36.47L95.8151 34.88C96.3551 34.14 97.0751 33.57 97.9751 33.17C98.8751 32.75 100.045 32.54 101.485 32.54C103.585 32.54 105.155 32.98 106.195 33.86C107.255 34.72 107.785 35.98 107.785 37.64V43.25ZM100.795 44.96C101.955 44.96 102.865 44.67 103.525 44.09C104.185 43.51 104.515 42.78 104.515 41.9V40.28C104.135 40.44 103.475 40.57 102.535 40.67L101.185 40.82C99.3451 41.02 98.4251 41.75 98.4251 43.01C98.4251 43.65 98.6251 44.14 99.0251 44.48C99.4451 44.8 100.035 44.96 100.795 44.96ZM113.957 47.36C113.077 46.9 112.457 46.37 112.097 45.77C111.757 45.17 111.587 44.35 111.587 43.31V28.85C111.587 28.35 111.497 27.95 111.317 27.65C111.137 27.35 110.807 27.02 110.327 26.66L112.517 24.74C113.397 25.2 114.007 25.73 114.347 26.33C114.687 26.91 114.857 27.73 114.857 28.79V43.25C114.857 43.73 114.947 44.12 115.127 44.42C115.327 44.72 115.667 45.06 116.147 45.44L113.957 47.36ZM130.725 43.25C130.725 43.73 130.815 44.12 130.995 44.42C131.175 44.72 131.505 45.06 131.985 45.44L129.795 47.36C128.675 46.8 127.965 46.06 127.665 45.14C127.205 45.78 126.575 46.31 125.775 46.73C124.975 47.15 124.025 47.36 122.925 47.36C121.485 47.36 120.345 47 119.505 46.28C118.665 45.54 118.245 44.5 118.245 43.16C118.245 41.62 118.775 40.53 119.835 39.89C120.895 39.25 122.245 38.84 123.885 38.66L125.625 38.48C126.265 38.42 126.715 38.31 126.975 38.15C127.255 37.97 127.415 37.71 127.455 37.37C127.335 35.69 126.325 34.85 124.425 34.85C123.685 34.85 123.045 34.98 122.505 35.24C121.985 35.48 121.485 35.89 121.005 36.47L118.755 34.88C119.295 34.14 120.015 33.57 120.915 33.17C121.815 32.75 122.985 32.54 124.425 32.54C126.525 32.54 128.095 32.98 129.135 33.86C130.195 34.72 130.725 35.98 130.725 37.64V43.25ZM123.735 44.96C124.895 44.96 125.805 44.67 126.465 44.09C127.125 43.51 127.455 42.78 127.455 41.9V40.28C127.075 40.44 126.415 40.57 125.475 40.67L124.125 40.82C122.285 41.02 121.365 41.75 121.365 43.01C121.365 43.65 121.565 44.14 121.965 44.48C122.385 44.8 122.975 44.96 123.735 44.96ZM126.015 26.24H129.465L126.255 30.83H123.615L126.015 26.24ZM140.575 47.36C138.535 47.36 136.965 46.89 135.865 45.95C134.765 45.01 134.215 43.66 134.215 41.9V38C134.215 36.26 134.765 34.92 135.865 33.98C136.985 33.02 138.555 32.54 140.575 32.54C143.075 32.54 144.905 33.33 146.065 34.91L143.815 36.74C143.315 36.14 142.825 35.72 142.345 35.48C141.885 35.22 141.295 35.09 140.575 35.09C139.595 35.09 138.835 35.35 138.295 35.87C137.755 36.37 137.485 37.08 137.485 38V41.9C137.485 42.84 137.745 43.56 138.265 44.06C138.805 44.56 139.575 44.81 140.575 44.81C141.315 44.81 141.925 44.69 142.405 44.45C142.905 44.19 143.385 43.77 143.845 43.19L146.095 45.02C145.515 45.8 144.785 46.39 143.905 46.79C143.025 47.17 141.915 47.36 140.575 47.36ZM150.826 30.59C150.286 30.59 149.816 30.4 149.416 30.02C149.036 29.62 148.846 29.15 148.846 28.61C148.846 28.09 149.036 27.64 149.416 27.26C149.816 26.86 150.286 26.66 150.826 26.66C151.346 26.66 151.796 26.86 152.176 27.26C152.576 27.64 152.776 28.09 152.776 28.61C152.776 29.15 152.576 29.62 152.176 30.02C151.796 30.4 151.346 30.59 150.826 30.59ZM151.546 47.36C150.666 46.9 150.046 46.37 149.686 45.77C149.346 45.17 149.176 44.35 149.176 43.31V32.9H152.446V43.25C152.446 43.73 152.536 44.12 152.716 44.42C152.896 44.72 153.226 45.06 153.706 45.44L151.546 47.36ZM168.576 43.25C168.576 43.73 168.666 44.12 168.846 44.42C169.026 44.72 169.356 45.06 169.836 45.44L167.646 47.36C166.526 46.8 165.816 46.06 165.516 45.14C165.056 45.78 164.426 46.31 163.626 46.73C162.826 47.15 161.876 47.36 160.776 47.36C159.336 47.36 158.196 47 157.356 46.28C156.516 45.54 156.096 44.5 156.096 43.16C156.096 41.62 156.626 40.53 157.686 39.89C158.746 39.25 160.096 38.84 161.736 38.66L163.476 38.48C164.116 38.42 164.566 38.31 164.826 38.15C165.106 37.97 165.266 37.71 165.306 37.37C165.186 35.69 164.176 34.85 162.276 34.85C161.536 34.85 160.896 34.98 160.356 35.24C159.836 35.48 159.336 35.89 158.856 36.47L156.606 34.88C157.146 34.14 157.866 33.57 158.766 33.17C159.666 32.75 160.836 32.54 162.276 32.54C164.376 32.54 165.946 32.98 166.986 33.86C168.046 34.72 168.576 35.98 168.576 37.64V43.25ZM161.586 44.96C162.746 44.96 163.656 44.67 164.316 44.09C164.976 43.51 165.306 42.78 165.306 41.9V40.28C164.926 40.44 164.266 40.57 163.326 40.67L161.976 40.82C160.136 41.02 159.216 41.75 159.216 43.01C159.216 43.65 159.416 44.14 159.816 44.48C160.236 44.8 160.826 44.96 161.586 44.96Z" fill="white"/>
</svg>
