<svg width="181" height="103" viewBox="0 0 181 103" fill="none" xmlns="http://www.w3.org/2000/svg">
<path d="M98.6277 91.1113C94.0969 91.1113 90.6341 90.0595 88.2392 87.9559C85.8444 85.8523 84.647 82.7779 84.647 78.7325V68.3441C84.647 64.2988 85.8282 61.2243 88.1907 59.1207C90.5532 57.0172 93.9674 55.9654 98.4335 55.9654C101.508 55.9654 104.048 56.467 106.055 57.4702C108.061 58.4735 109.68 59.9945 110.909 62.0334L106.832 64.8975C105.796 63.3441 104.647 62.2276 103.385 61.5479C102.155 60.836 100.521 60.48 98.482 60.48C93.0775 60.48 90.3752 63.1014 90.3752 68.3441V78.7325C90.3752 83.9753 93.1098 86.5967 98.5791 86.5967C100.747 86.5967 102.495 86.2245 103.822 85.4802C105.149 84.7358 106.298 83.5708 107.269 81.985L111.346 84.9947C109.825 87.1307 108.11 88.6841 106.201 89.655C104.291 90.6258 101.767 91.1113 98.6277 91.1113ZM135.024 84.4607C135.024 85.2374 135.17 85.8685 135.461 86.354C135.752 86.8394 136.286 87.3896 137.063 88.0045L133.519 91.1113C131.707 90.2051 130.558 89.0077 130.073 87.519C129.328 88.5546 128.309 89.4122 127.015 90.0919C125.72 90.7715 124.183 91.1113 122.403 91.1113C120.073 91.1113 118.228 90.5287 116.869 89.3637C115.51 88.1663 114.83 86.4834 114.83 84.3151C114.83 81.8232 115.688 80.0594 117.403 79.0238C119.118 77.9882 121.303 77.3248 123.956 77.0335L126.772 76.7422C127.807 76.6451 128.536 76.4672 128.956 76.2082C129.409 75.917 129.668 75.4963 129.733 74.9461C129.539 72.2276 127.905 70.8684 124.83 70.8684C123.633 70.8684 122.597 71.0788 121.723 71.4995C120.882 71.8878 120.073 72.5513 119.296 73.4898L115.655 70.9169C116.529 69.7195 117.694 68.7972 119.15 68.1499C120.607 67.4703 122.5 67.1305 124.83 67.1305C128.228 67.1305 130.769 67.8425 132.451 69.2664C134.167 70.658 135.024 72.6969 135.024 75.383V84.4607ZM123.714 87.2278C125.591 87.2278 127.063 86.7585 128.131 85.82C129.199 84.8815 129.733 83.7002 129.733 82.2763V79.6549C129.118 79.9138 128.05 80.1241 126.529 80.286L124.345 80.5287C121.367 80.8523 119.879 82.0335 119.879 84.0724C119.879 85.108 120.202 85.9009 120.849 86.451C121.529 86.9688 122.484 87.2278 123.714 87.2278ZM153.544 67.1305C155.033 67.1305 156.344 67.535 157.476 68.3441L156.117 72.8102C155.535 72.4218 154.936 72.1467 154.321 71.9849C153.738 71.7907 153.059 71.6937 152.282 71.6937C149.758 71.6937 147.978 73.5545 146.942 77.2762V90.5287H141.651V73.781C141.651 73.0043 141.505 72.3733 141.214 71.8878C140.923 71.4024 140.389 70.8522 139.612 70.2373L143.156 67.1305C144.289 67.713 145.13 68.3603 145.68 69.0723C146.263 69.7519 146.635 70.6095 146.797 71.6451C147.476 70.2535 148.382 69.1532 149.515 68.3441C150.648 67.535 151.991 67.1305 153.544 67.1305ZM169.596 87.0336C170.859 87.0336 171.91 86.8718 172.752 86.5481C173.626 86.1921 174.499 85.5934 175.373 84.752L178.529 87.6646C177.558 88.7973 176.344 89.655 174.888 90.2375C173.431 90.82 171.635 91.1113 169.499 91.1113C166.004 91.1113 163.415 90.3993 161.732 88.9753C160.049 87.519 159.208 85.3022 159.208 82.3248V75.2374C159.208 72.7454 160.082 70.7875 161.829 69.3635C163.609 67.9072 166.037 67.1791 169.111 67.1791C172.25 67.1791 174.694 67.9558 176.441 69.5092C178.189 71.0302 179.063 73.2309 179.063 76.1112C179.063 77.438 178.933 78.4736 178.674 79.218C178.415 79.9623 177.946 80.5125 177.266 80.8685C176.587 81.1921 175.584 81.3539 174.257 81.3539H164.451V82.3248C164.451 85.464 166.166 87.0336 169.596 87.0336ZM169.062 71.2082C167.638 71.2082 166.506 71.6127 165.664 72.4218C164.855 73.2309 164.451 74.2988 164.451 75.6257V77.7131H171.393C172.299 77.7131 172.93 77.5675 173.286 77.2762C173.642 76.9526 173.82 76.4024 173.82 75.6257C173.82 74.2018 173.399 73.1176 172.558 72.3733C171.749 71.5966 170.583 71.2082 169.062 71.2082Z" fill="white"/>
<path d="M4.27188 17.0192H10.0001V31.728H25.0487V17.0192H30.7769V51H25.0487V36.1941H10.0001V51H4.27188V17.0192ZM47.8963 47.5048C49.1584 47.5048 50.2102 47.343 51.0517 47.0194C51.9255 46.6634 52.7993 46.0647 53.673 45.2233L56.8284 48.1359C55.8575 49.2686 54.6439 50.1262 53.1876 50.7087C51.7313 51.2913 49.9352 51.5825 47.7992 51.5825C44.304 51.5825 41.715 50.8705 40.0322 49.4466C38.3493 47.9903 37.5079 45.7734 37.5079 42.7961V35.7086C37.5079 33.2167 38.3817 31.2587 40.1293 29.8348C41.9092 28.3785 44.3364 27.6503 47.4109 27.6503C50.55 27.6503 52.9934 28.427 54.741 29.9804C56.4886 31.5015 57.3624 33.7021 57.3624 36.5824C57.3624 37.9093 57.2329 38.9449 56.974 39.6892C56.7151 40.4336 56.2459 40.9837 55.5663 41.3397C54.8866 41.6634 53.8834 41.8252 52.5565 41.8252H42.7506V42.7961C42.7506 45.9352 44.4659 47.5048 47.8963 47.5048ZM47.3623 31.6795C45.9384 31.6795 44.8057 32.084 43.9642 32.8931C43.1552 33.7021 42.7506 34.7701 42.7506 36.097V38.1844H49.6924C50.5986 38.1844 51.2297 38.0387 51.5856 37.7475C51.9416 37.4238 52.1196 36.8737 52.1196 36.097C52.1196 34.673 51.6989 33.5889 50.8575 32.8445C50.0484 32.0678 48.8834 31.6795 47.3623 31.6795ZM81.21 44.932C81.21 45.7087 81.3557 46.3398 81.6469 46.8252C81.9382 47.3107 82.4722 47.8608 83.2489 48.4757L79.7052 51.5825C77.8929 50.6764 76.744 49.479 76.2585 47.9903C75.5142 49.0259 74.4948 49.8835 73.2003 50.5631C71.9058 51.2427 70.3685 51.5825 68.5886 51.5825C66.2585 51.5825 64.4138 51 63.0546 49.8349C61.6953 48.6375 61.0157 46.9547 61.0157 44.7864C61.0157 42.2944 61.8733 40.5307 63.5885 39.4951C65.3038 38.4595 67.4883 37.796 70.142 37.5048L72.9576 37.2135C73.9932 37.1164 74.7213 36.9384 75.142 36.6795C75.5951 36.3882 75.854 35.9675 75.9187 35.4174C75.7246 32.6989 74.0902 31.3397 71.0158 31.3397C69.8184 31.3397 68.7828 31.55 67.909 31.9707C67.0675 32.3591 66.2585 33.0225 65.4818 33.961L61.841 31.3882C62.7148 30.1908 63.8798 29.2684 65.3361 28.6212C66.7925 27.9416 68.6857 27.6018 71.0158 27.6018C74.4139 27.6018 76.9543 28.3137 78.6372 29.7377C80.3524 31.1293 81.21 33.1681 81.21 35.8543V44.932ZM69.8993 47.699C71.7763 47.699 73.2488 47.2297 74.3168 46.2912C75.3848 45.3527 75.9187 44.1715 75.9187 42.7475V40.1261C75.3038 40.385 74.2359 40.5954 72.7148 40.7572L70.5303 40.9999C67.553 41.3236 66.0643 42.5048 66.0643 44.5436C66.0643 45.5792 66.3879 46.3721 67.0352 46.9223C67.7148 47.4401 68.6695 47.699 69.8993 47.699ZM99.73 27.6018C101.219 27.6018 102.529 28.0063 103.662 28.8154L102.303 33.2814C101.72 32.8931 101.122 32.618 100.507 32.4562C99.9242 32.262 99.2445 32.1649 98.4678 32.1649C95.9435 32.1649 94.1636 34.0258 93.128 37.7475V51H87.8367V34.2523C87.8367 33.4756 87.6911 32.8445 87.3998 32.3591C87.1085 31.8736 86.5745 31.3235 85.7978 30.7086L89.3416 27.6018C90.4742 28.1843 91.3157 28.8315 91.8658 29.5435C92.4484 30.2231 92.8205 31.0808 92.9824 32.1164C93.662 30.7248 94.5681 29.6244 95.7008 28.8154C96.8335 28.0063 98.1766 27.6018 99.73 27.6018ZM111.99 32.3105V43.0873C111.99 44.4789 112.233 45.4822 112.718 46.097C113.204 46.7119 113.997 47.0194 115.097 47.0194H118.592V51.0971H115.097C112.055 51.0971 109.886 50.4984 108.592 49.301C107.33 48.0712 106.699 46 106.699 43.0873V24.058C106.699 23.2813 106.553 22.6503 106.262 22.1648C105.971 21.6794 105.437 21.1292 104.66 20.5143L108.204 17.4075C109.628 18.1519 110.615 19.0095 111.165 19.9803C111.715 20.9189 111.99 22.2457 111.99 23.961V28.1843H118.592V32.3105H111.99Z" fill="white"/>
<path fill-rule="evenodd" clip-rule="evenodd" d="M132.702 21.2995C130.731 23.8086 129.536 27.2366 129.536 30.8155C129.536 32.8921 129.893 34.8791 130.522 36.771H142.251L146.826 28.6368L149.685 38.6433L153.184 34.1451H161.947V36.8461H154.505L148.55 44.5022L146.007 35.602L143.83 39.4719H124.134V36.771H127.694C127.146 34.8821 126.835 32.8935 126.835 30.8155C126.835 26.6624 128.214 22.6396 130.579 19.6308C132.949 16.6136 136.364 14.5632 140.382 14.5632C145.113 14.5632 148.712 17.2147 151.144 20.9561C153.576 17.2149 157.174 14.5632 161.905 14.5632C165.923 14.5632 169.338 16.6139 171.709 19.6312C174.073 22.6403 175.452 26.6631 175.452 30.8155C175.452 39.705 169.316 47.1284 163.511 52.1955C160.575 54.7581 157.645 56.7865 155.453 58.1734C154.355 58.8678 153.438 59.4037 152.793 59.7674C152.471 59.9493 152.216 60.0884 152.04 60.1828C151.952 60.23 151.883 60.2661 151.836 60.2908L151.782 60.3193L151.766 60.3271L151.762 60.3296L151.76 60.3302C151.76 60.3302 151.759 60.3308 151.144 59.1289C150.558 60.3456 150.557 60.3455 150.557 60.3455L150.549 60.3416L150.53 60.3324L150.462 60.2989C150.404 60.2699 150.319 60.2273 150.21 60.1718C149.991 60.0606 149.676 59.8965 149.279 59.6813C148.486 59.2511 147.367 58.6156 146.047 57.7876C143.412 56.1346 139.955 53.7004 136.705 50.5859C134.971 48.9247 133.287 47.0616 131.815 45.0112C131.38 44.4052 131.519 43.5614 132.125 43.1266C132.731 42.6917 133.574 42.8304 134.009 43.4364C135.366 45.3263 136.934 47.0654 138.573 48.6357C141.651 51.5844 144.947 53.9091 147.482 55.4995C148.747 56.2931 149.817 56.9002 150.567 57.3072C150.78 57.4228 150.967 57.5222 151.126 57.605C151.228 57.5488 151.342 57.4853 151.467 57.4147C152.077 57.0705 152.954 56.558 154.009 55.8908C156.121 54.5548 158.931 52.6078 161.735 50.1606C167.408 45.2085 172.751 38.4751 172.751 30.8155C172.751 27.2372 171.557 23.8091 169.585 21.2999C167.62 18.799 164.936 17.2642 161.905 17.2642C157.715 17.2642 154.465 19.9932 152.356 24.2891L151.144 26.7581L149.931 24.2891C147.822 19.9929 144.572 17.2642 140.382 17.2642C137.351 17.2642 134.667 18.7987 132.702 21.2995ZM151.144 59.1289L150.557 60.3455L151.162 60.6367L151.76 60.3302L151.144 59.1289Z" fill="white"/>
</svg>
